<svg xmlns="http://www.w3.org/2000/svg" width="512" height="512" enable-background="new 0 0 512 512" viewBox="0 0 512 512"><path fill="#333" d="M155.312,106.165C119.027,69.876,49.345,44.978,21.658,72.651
		c-27.651,27.664-2.785,97.378,33.474,133.623c40.429,40.406,93.591,19.613,109.448,35.509
		c15.918,15.925,133.821,147.834,171.142,184.971c68.138,68.312,78.767,60.886,89.864,49.801
		c11.068-11.088,18.495-21.709-49.694-89.896c-37.272-37.274-169.098-155.247-184.972-171.13
		C175.018,199.612,196.312,147.121,155.312,106.165z"/><path fill="#333" d="M188.997 308.097c-34.659 31.844-68.857 63.541-84.989 79.678-67.573 67.572-60.135 78.178-49.187 89.183 10.983 11.004 21.526 18.316 89.104-49.262 15.6-15.604 45.736-48.172 76.455-81.706L188.997 308.097zM484.622 100.72l-79.095 79.124c-4.479 4.437-13.229 2.752-17.636-1.661-4.382-4.411-6.023-13.214-1.665-17.612l79.862-79.843c.104-.103-5.33-5.604-8.973-9.29-4.105-4.113-10.24-10.065-10.283-9.976l-79.104 79.118c-4.494 4.439-13.242 2.748-17.614-1.69-4.429-4.402-6.101-13.18-1.659-17.593l78.296-78.311c-.914.884-19.396-15.09-19.396-15.09s-64.922 60.373-100.882 96.187c-40.029 40.029-3.097 77.46-18.857 93.212-3.28 3.239-11.596 10.979-22.794 21.292l29.745 26.277c9.475-10.303 16.523-17.862 19.586-20.941 15.72-15.795 52.101 21.095 92.693-19.472 23.587-23.587 95.307-101.661 95.307-101.661S502.974 120.948 484.622 100.72z"/></svg>